# xmcd CD database file
#
# Track frame offsets:
#	150
#	20108
#	46341
#	59929
#	82483
#	112978
#	132395
#	153477
#	179426
#	207074
#	227512
#	246744
#	270554
#	289002
#	314372
#
# Disc length: 4535 seconds
#
# Revision: 26
# Processed by: cddbd v1.5.2PL0 Copyright (c) Steve Scherf et al.
# Submitted via: CDex 1.50
#
DISCID=e711b50f
DTITLE=Diana Krall - The Very Best Of Diana Krall
DYEAR=2007
DGENRE=Jazz
TTITLE0='S Wonderful
TTITLE1=Peel Me A Grape
TTITLE2=Pick Yourself Up
TTITLE3=Frim Fram Sauce
TTITLE4=You Go To My Head
TTITLE5=Let's Fall In Love
TTITLE6=The Look Of Love
TTITLE7=East Of The Sun (And West Of The Moon)
TTITLE8=I've Got You Under My Skin
TTITLE9=All Or Nothing At All
TTITLE10=Only The Lonely
TTITLE11=Let's Face The Music and Dance
TTITLE12=The Heart Of Saturday Night
TTITLE13=Little Girl Blue
TTITLE14=Fly Me To The Moon
EXTD=YEAR: 2007
EXTT0=
EXTT1=
EXTT2=
EXTT3=
EXTT4=
EXTT5=
EXTT6=
EXTT7=
EXTT8=
EXTT9=
EXTT10=
EXTT11=
EXTT12=
EXTT13=
EXTT14=
PLAYORDER=
